<svg xmlns="http://www.w3.org/2000/svg" xmlns:xlink="http://www.w3.org/1999/xlink" x="0px" y="0px" viewBox="0 0 500 500" style="enable-background:new 0 0 500 500;" xml:space="preserve"><style type="text/css">			.st0{clip-path:url(#SVGID_00000150815599628159026170000006315294096957157011_);fill:url(#SVGID_00000003087710022900661090000008004833382915356581_);}	.st1{fill:#FFFFFF;}	.st2{fill:#4161AB;}	.st3{fill:#EBF6FF;}	.st4{fill:#0C2A52;}			.st5{opacity:0.4;clip-path:url(#SVGID_00000097497555801107748520000007106063875069394315_);fill:url(#SVGID_00000156570961562842443520000015123783238512053128_);}			.st6{clip-path:url(#SVGID_00000014629955999341800000000008213208284046375603_);fill:url(#SVGID_00000136383650239159935030000017492889181606425737_);}</style><g id="Layer_1"></g><g id="Layer_2">	<g>		<path class="st4" d="M108.2,491c-36.7-36.7-72.1-72.1-108-108c3.7-3.6,7.7-7.3,11.6-11.1c27.7-27.2,55.4-54.4,83-81.7   c24.7-24.5,54.4-34.2,88.7-30.5c11.4,1.2,22.4,4.5,32.8,9.7c10.4,5.2,21.4,7.1,32.8,7.2c15.5,0.1,30.9,0,46.4,0.1   c12,0.1,23.4,2.5,32.6,11c16.3,14.9,14.3,39.9-4.1,52.2c-8.7,5.8-18.4,8.2-28.7,8.2c-17,0-33.9,0-50.9,0c-7.7,0-12.2,3.3-12.1,8.8   c0.1,5.4,4.9,9.1,12.1,9.1c28.3,0,56.5,0.1,84.8-0.1c2.4,0,5.2-1.1,7.1-2.6c26.6-22,52.9-44.3,79.7-66.1   c10-8.1,20.3-16.2,31.5-22.5c13.6-7.8,28.5-9.4,43-1.3c10.8,6,12.4,16.7,4.1,26c-33.1,37.1-66.1,74.1-99.2,111.2   c-6.1,6.9-12.3,13.7-18.4,20.7c-13.4,15.4-30.6,23.2-50.6,23.6c-29.9,0.7-59.8,0.2-89.7,0.3c-29.3,0-58.6,0.1-87.9-0.1   c-4.4,0-7.5,1.3-10.5,4.4c-8.5,8.9-17.4,17.5-26.1,26.3C110.6,487.2,109.5,489.2,108.2,491z"></path>		<path class="st4" d="M293,223c-17.5-17.6-34.7-34.9-51.9-52.2c-16-16-32-32-47.9-47.9c-28.9-28.9-27.4-73,3.4-99.4   c19.7-16.9,51.7-19.4,75.3-5.3c7.7,4.6,14.5,10.7,22.2,16.5c2.5-2.3,5.6-5.3,8.7-8.1c27.1-24.7,69.8-23,94.4,3.8   c23.7,25.7,23,65.2-2.4,91.2c-32.7,33.5-66.2,66.3-99.3,99.4C294.9,221.5,294.2,222,293,223z"></path>	</g></g></svg>