<svg xmlns="http://www.w3.org/2000/svg" xmlns:xlink="http://www.w3.org/1999/xlink" x="0px" y="0px" viewBox="0 0 500 500" style="enable-background:new 0 0 500 500;" xml:space="preserve"><style type="text/css">			.st0{clip-path:url(#SVGID_00000060738760223539518750000003882802207724042146_);fill:url(#SVGID_00000111892695127309303590000007097549126388015512_);}	.st1{fill:#FFFFFF;}	.st2{fill:#4161AB;}	.st3{fill:#EBF6FF;}	.st4{fill:#0C2A52;}			.st5{opacity:0.4;clip-path:url(#SVGID_00000165956045175193563340000011311838698513130396_);fill:url(#SVGID_00000005261506165459960600000004086056248840550282_);}			.st6{clip-path:url(#SVGID_00000155117147306122018950000012174352923004841394_);fill:url(#SVGID_00000020366250685620147020000018075220288935767715_);}</style><g id="Layer_1"></g><g id="Layer_2">	<g>		<path class="st4" d="M473.6,146.7c0.2,56.6-2.3,98.6-11.2,140.1c-5.6,25.9-13.3,51.1-26.4,74.2c-11.5,20.4-26.2,38.4-42.6,55   c-36.8,37.7-80.3,64.7-130.2,81.7c-9.1,3.1-17.5,3-26.5-0.1c-60.1-20.5-110.1-55.4-150.5-104.4c-23.7-28.8-38.1-61.9-46.6-98   c-10.2-43.4-13.9-87.5-13-131.8c0.6-29.9,3.3-59.8,5.4-89.7c0.8-11,4.9-15.5,15.6-18.5c65-18.1,130.1-36.1,195.1-54.3   c5.1-1.4,9.8-1.4,14.9,0.1c65,18.1,130,36.2,195.1,54.3c10.5,2.9,14.6,7.4,15.5,18.2C470.4,102.6,472.5,131.7,473.6,146.7z    M230.9,254.3c-1.3-1.2-2.4-2.2-3.4-3.2c-17.3-17.3-34.5-34.6-51.9-51.8c-8-8-17.2-8-25.3-0.3c-5.2,5-10.1,10.1-15.2,15.2   c-3.6,3.7-5.7,7.9-5.4,13.2c0.3,5.5,3.4,9.3,7.1,13c26.6,26.5,53.2,53.1,79.7,79.7c10.2,10.2,18.6,10.3,28.8,0.1   c16.6-16.7,33.3-33.3,49.9-50c27.8-27.8,55.7-55.6,83.4-83.5c8-8.1,8.1-17.1,0.2-25.2c-5.1-5.2-10.2-10.5-15.5-15.5   c-7.2-6.9-16.3-6.9-23.7-0.2c-1.5,1.4-3,2.9-4.5,4.4c-33.4,33.4-66.8,66.8-100.3,100.2C233.7,251.7,232.4,252.9,230.9,254.3z"></path>	</g></g></svg>