<svg xmlns="http://www.w3.org/2000/svg" xmlns:xlink="http://www.w3.org/1999/xlink" x="0px" y="0px" viewBox="0 0 500 500" style="enable-background:new 0 0 500 500;" xml:space="preserve"><style type="text/css">			.st0{clip-path:url(#SVGID_00000177469224833399668330000010408586041858733460_);fill:url(#SVGID_00000095326980628334363640000005395664985688699043_);}	.st1{fill:#FFFFFF;}	.st2{fill:#4161AB;}	.st3{fill:#EBF6FF;}	.st4{fill:#0C2A52;}			.st5{opacity:0.4;clip-path:url(#SVGID_00000069363624824135671120000007127388837542051482_);fill:url(#SVGID_00000023975053159692513680000000816353742232176821_);}			.st6{clip-path:url(#SVGID_00000099630460459538070380000002544486212284080527_);fill:url(#SVGID_00000018924634501551208530000003229585998082964111_);}</style><g id="Layer_1"></g><g id="Layer_2">	<g>		<path class="st4" d="M279.5,80.5c10.4-3.3,19.9-7.4,29.8-9.3c44.7-8.7,88.4,17.3,102.4,60.7c1.2,3.7,3,5,6.7,5.6   c41.8,6.6,76.1,42.6,80.9,84.7c5.7,50.6-25.1,95.6-74.5,108.1c-7.6,1.9-15.6,2.7-23.4,2.7c-100.9,0.2-201.8,0.2-302.8,0.1   C41.4,333-4.1,284.9,0.3,227.9c3.2-40.7,25.1-69.1,62.6-85.1c3.3-1.4,4.7-2.8,4.7-6.7c0.1-51.5,33.9-95.8,83.2-109.4   c48.9-13.4,100.5,7.3,127,50.9C278.4,78.9,279.2,80,279.5,80.5z M161.6,230.7c0.6,0.5,0.9,0.6,1,0.8c0.3,0.8,0.6,1.7,0.8,2.5   c10.4,33.4,32.5,55.2,66.5,63.2c32.8,7.7,61.4-1.7,85.2-25.5c5.4-5.4,6-10.2,2.1-13.8c-3.9-3.7-8.3-2.8-13.7,2.8   c-32.2,33.5-86.2,29.8-113.5-7.8c-5.4-7.4-9.4-15.6-11.8-25.9c3.6,2.9,6.3,5,8.9,7.1c4.7,3.7,9.1,3.7,12.3,0.1   c3.3-3.8,2.6-8.6-2-12.4c-7.6-6.3-15.2-12.5-22.9-18.6c-4.6-3.6-8.8-3.2-12.5,1.3c-6.5,7.8-12.8,15.6-19.1,23.6   c-3.2,4.1-2.9,8.6,0.6,11.6c3.5,3,8.4,2.3,11.8-1.6C157.6,235.6,159.6,233.1,161.6,230.7z M338,189.2c-0.7-2.2-1.1-3.3-1.4-4.4   c-15.1-52.1-71.9-79.2-121.9-58c-12.5,5.3-23.3,13.1-32.2,23.4c-3.2,3.7-2.9,8.2,0.4,11.2c3.2,3,7.6,2.9,11.2-0.4   c0.7-0.6,1.3-1.3,1.9-1.9c30.7-32.4,81.6-31.2,110.6,2.7c7.2,8.5,12.3,18.1,14.6,29.2c-3.2-1.9-6-4.2-8.9-6.4   c-4.3-3.2-9-2.9-11.9,0.7c-2.9,3.6-2.2,8.4,1.9,11.8c7.7,6.4,15.4,12.7,23.2,18.9c4.7,3.7,8.8,3.3,12.5-1.2   c6.5-7.8,12.8-15.6,19.1-23.6c3.3-4.2,2.8-9-0.8-11.9c-3.5-2.8-8-2.2-11.4,1.7C342.7,183.5,340.7,186,338,189.2z"></path>		<path class="st4" d="M106.1,349.5c2.1-0.1,3.7-0.2,5.3-0.2c27.5,0,55.1,0,82.6-0.1c3.3,0,4.9,1,6.1,4.1   c8.3,20.6,28.1,33.8,50.2,33.7c22.3-0.1,41.7-13.3,50-34c0.9-2.2,1.6-3.8,4.5-3.8c28.7,0.1,57.4,0.1,86.2,0.1   c0.9,0,1.7,0.2,2.5,0.4c0.2,5-1.9,8.1-7.2,10c-6.3,2.3-12.7,4.3-19.1,6.2c-4.5,1.3-7.5,4-9.1,8.4c-0.8,2.2-1.7,4.4-2.7,6.6   c-1.8,4-1.5,7.8,0.5,11.6c2.9,5.7,5.9,11.4,8.7,17.1c3.1,6.2,2.4,10.4-2.5,15.3c-6.8,6.9-13.7,13.7-20.5,20.5   c-4.7,4.7-9,5.3-15,2.4c-5.6-2.8-11.2-5.6-16.7-8.5c-4.3-2.3-8.4-2.6-12.8-0.5c-1.9,0.9-3.8,1.7-5.8,2.4c-4.4,1.5-7.1,4.5-8.5,9   c-1.8,6.1-3.9,12.2-5.9,18.2c-2.1,6.2-5.4,8.7-11.9,8.8c-10,0.1-19.9,0.1-29.9,0c-6.6-0.1-9.8-2.5-11.9-8.7   c-2.1-6.2-4.2-12.4-6.1-18.7c-1.2-4-3.6-6.8-7.4-8.3c-2.6-1-5.1-2.7-7.9-3.1c-3.4-0.5-7.2-0.8-10.2,0.4c-6.2,2.4-12,5.9-18,8.9   c-6.3,3.1-10.3,2.4-15.3-2.6c-6.8-6.7-13.5-13.4-20.2-20.2c-5.1-5.1-5.7-9.1-2.4-15.7c2.7-5.5,5.5-10.9,8.3-16.3   c2.3-4.3,2.6-8.4,0.4-12.8c-0.8-1.6-1.5-3.2-2.1-4.9c-1.7-5.3-5.4-8.2-10.7-9.7c-6.1-1.8-12.2-3.8-18.2-5.9   C109.1,358,106.6,354.8,106.1,349.5z"></path>	</g></g></svg>