<svg xmlns="http://www.w3.org/2000/svg" xmlns:xlink="http://www.w3.org/1999/xlink" x="0px" y="0px" viewBox="0 0 500 500" style="enable-background:new 0 0 500 500;" xml:space="preserve"><style type="text/css">			.st0{clip-path:url(#SVGID_00000090294874004715724160000004705817674277072283_);fill:url(#SVGID_00000164516072767628760770000015208540541262547602_);}	.st1{fill:#FFFFFF;}	.st2{fill:#4161AB;}	.st3{fill:#EBF6FF;}	.st4{fill:#0C2A52;}			.st5{opacity:0.4;clip-path:url(#SVGID_00000116214162839352620800000014998657975639168151_);fill:url(#SVGID_00000006705139570190464170000015544754440519568830_);}			.st6{clip-path:url(#SVGID_00000135666756994396573110000014384721876451114650_);fill:url(#SVGID_00000155109655494034892250000013119220202201148049_);}</style><g id="Layer_1"></g><g id="Layer_2">	<g>		<path class="st4" d="M77.1,65.4c0,6.7-0.1,12.9,0,19.1c0.3,15.3,6.4,27.6,18.9,36.6c7.1,5.1,15.1,7.8,23.8,7.8   c52.8,0.1,105.6,0.3,158.5-0.1c24-0.2,42.5-19.6,42.9-43.7c0.1-6.4,0-12.7,0-19.5c1.8-0.1,3.3-0.2,4.7-0.2c15.6,0,31.2,0,46.9,0   c10.7,0,16.7,5.9,16.7,16.5c0,32.1,0.1,64.3-0.1,96.4c0,2.3-1.2,5.3-2.9,6.9c-41.8,42-83.7,83.8-125.4,125.8   c-4.4,4.5-8.4,9.8-11.1,15.4c-11.7,24.9-23,50-34.2,75.1c-7.7,17.2-4.4,35.9,8.1,48.8c12.9,13.3,31.3,17.4,48.8,9.8   c26.3-11.5,52.4-23.4,78.4-35.6c4.9-2.3,9.1-6.1,13.1-9.9c7.4-6.9,14.4-14.2,21.5-21.4c0.9-0.9,1.9-1.7,3.8-3.4c0,2.6,0,4.2,0,5.7   c0,29,0,58,0,87c0,12-5.5,17.4-17.5,17.4c-115.3,0-230.6,0-345.9,0c-11.9,0-17.4-5.5-17.4-17.5c0-133.2,0-266.3,0-399.5   c0-12.1,5.5-17.6,17.8-17.6c15,0,30.1,0,45.1,0C73.3,65.4,74.9,65.4,77.1,65.4z M141.6,398.8c-1.2-0.4-1.6-0.4-1.8-0.6   c-4.5-4.4-8.8-8.9-13.4-13.1c-6.1-5.6-15-5.6-20.6,0c-5.6,5.5-5.9,14.6-0.1,20.5c8.1,8.5,16.4,16.8,24.9,24.9   c5.8,5.5,14,5.7,19.7,0.1c16.7-16.3,33.1-32.9,49.5-49.5c3.5-3.6,4.9-8.1,3.7-13.2c-2.8-11.6-16.1-15.3-24.9-6.8   c-8.3,8.1-16.5,16.3-24.6,24.6C149.8,390.1,145.6,394.7,141.6,398.8z M140.9,303.6c-0.7-0.3-1-0.4-1.2-0.5   c-4.2-4.2-8.4-8.4-12.7-12.5c-6.4-6.2-15.3-6.3-21.2-0.5c-5.8,5.8-5.6,14.8,0.6,21.2c7.6,7.7,15.3,15.4,23,23   c7,6.9,15.2,7,22.1,0.2c15.8-15.7,31.6-31.4,47.3-47.3c6.8-6.9,6.9-15.7,0.6-21.8c-5.9-5.7-14.9-5.1-21.5,1.4   c-11.2,11.2-22.5,22.5-33.7,33.7C143.2,301.6,142,302.6,140.9,303.6z M140.6,209.1c-4.8-4.9-9.1-9.4-13.5-13.7   c-6.5-6.3-15.2-6.5-21.1-0.6c-5.8,5.8-5.8,14.9,0.4,21.2c7.7,7.9,15.5,15.6,23.4,23.3c6.8,6.6,15,6.5,21.8,0.1   c3.7-3.5,7.2-7.1,10.7-10.7c12.2-12.2,24.4-24.4,36.6-36.6c3.9-3.9,6.1-8.5,4.9-14.1c-1.2-5.6-4.6-9.6-10.3-11.2   c-5.7-1.7-10.6,0-14.7,4c-8.3,8.1-16.4,16.4-24.6,24.6C149.8,199.7,145.4,204.2,140.6,209.1z M82,224.7c0-8-6.8-14.8-14.8-14.7   c-7.8,0.1-14.4,6.8-14.5,14.6c-0.1,8,6.7,14.8,14.8,14.7C75.4,239.2,82,232.6,82,224.7z M67.6,400.5c-7.9-0.1-14.6,6.3-14.8,14.1   c-0.2,8,6.3,14.9,14.4,15c7.9,0.1,14.6-6.3,14.8-14.1C82.2,407.5,75.7,400.6,67.6,400.5z M67.4,305.3c-8.1,0-14.7,6.7-14.6,14.8   c0.1,7.9,6.7,14.3,14.6,14.3c8,0,14.5-6.4,14.6-14.3C82.1,312,75.5,305.3,67.4,305.3z"></path>		<path class="st4" d="M352.6,384.8c-20.6-20.6-41.1-41.1-61.9-61.9c0.9-1,2.1-2.3,3.3-3.5c42.9-42.9,85.8-85.9,128.8-128.8   c8.4-8.4,16.3-8.4,24.7,0.1c12.8,12.8,25.7,25.6,38.5,38.5c6.9,6.9,6.9,15.6,0,22.5c-43.7,43.8-87.5,87.5-131.3,131.3   C354,383.7,353.2,384.3,352.6,384.8z"></path>		<path class="st4" d="M145.5,31.3c0-5.5,0-10.6,0-15.6c0.1-9.5,6.1-15.7,15.6-15.7c25.4,0,50.9,0,76.3,0c9.2,0,15.3,6.1,15.4,15.4   c0.1,5,0,10.1,0,15.8c5.6,0,10.8,0,16.1,0c2.8,0,5.7-0.1,8.5,0c8.2,0.3,14.4,6.3,14.5,14.5c0.2,13.1,0.2,26.2,0,39.3   c-0.1,8-6,14-14.1,14.5c-1.2,0.1-2.4,0-3.6,0c-50,0-100,0-149.9,0c-12.5,0-18-5.5-18-17.9c0-11.5,0-22.9,0-34.4   c0-10.1,6.1-16.1,16.1-16.1C129.9,31.3,137.3,31.3,145.5,31.3z"></path>		<path class="st4" d="M272.3,348.2c18.4,18.3,36.6,36.5,55.2,55.1c-4.6,2.1-9.2,4.2-13.9,6.4c-17.2,7.8-34.3,15.8-51.6,23.4   c-11.2,4.9-22.3-3.2-21-15c0.2-1.6,0.7-3.2,1.4-4.7c9.6-21.3,19.3-42.5,29-63.7C271.7,349,272.2,348.5,272.3,348.2z"></path>	</g></g></svg>