<svg xmlns="http://www.w3.org/2000/svg" xmlns:xlink="http://www.w3.org/1999/xlink" x="0px" y="0px" viewBox="0 0 500 500" style="enable-background:new 0 0 500 500;" xml:space="preserve"><style type="text/css">			.st0{clip-path:url(#SVGID_00000005233416594918515540000010417165778995919776_);fill:url(#SVGID_00000116944707707198740190000004546030726749180557_);}	.st1{fill:#FFFFFF;}	.st2{fill:#4161AB;}	.st3{fill:#EBF6FF;}	.st4{fill:#0C2A52;}			.st5{opacity:0.4;clip-path:url(#SVGID_00000152244963866638230560000003089439548865174453_);fill:url(#SVGID_00000013179467680100584450000003413274423074381726_);}			.st6{clip-path:url(#SVGID_00000157288236142717633260000004058035512255789707_);fill:url(#SVGID_00000062876669192648447120000000928154660007398070_);}</style><g id="Layer_1"></g><g id="Layer_2">	<g>		<g>			<path class="st4" d="M53.9,416.3c0.1-56.2,41.3-96.4,91.3-94.9c3.6,0.1,4.6-1.5,5.7-4.2c17.1-41.9,56.2-67.8,101.2-67.3    c42.1,0.5,80.8,26.9,96.7,66.4c1.6,3.9,3.2,5.3,7.7,5.1c34.8-1.2,69.3,21.5,82.7,54.1c14.3,34.6,6.2,74.1-20.2,99.1    c-31.4,29.6-76.5,33.4-111.9,9.2c-2.7-1.8-4.5-1.8-7.2,0c-31.4,21.1-69,21.1-99.9,0c-3-2.1-4.9-1.4-7.6,0.3    c-29.6,19.1-60.6,21.4-91.7,4.6C69.9,472.2,55,445.1,53.9,416.3z"></path>			<path class="st4" d="M146.6,142.8c3.9,12,7.6,23.2,11.3,34.4c0.7,2.3,1.5,4.5,2.2,6.8c1.3,4.1,0.6,7.8-3,10.5    c-3.8,2.8-7.7,2.2-11.3-0.5c-8.4-6.3-16.9-12.6-25.3-18.9c-13-9.8-26-19.7-39.2-29.3c-2.4-1.7-5.8-2.7-8.8-2.9    c-12.2-0.6-24.6,0.4-36.6-1.4c-20.3-3-35.4-21.4-35.7-41.9C0.1,80.9,0,62,0.4,43.2C0.8,20.1,20,0.5,43.1,0.3    c42.8-0.4,85.6-0.4,128.4,0c23.1,0.2,42.3,19.7,42.8,42.9c0.4,18.8,0.3,37.7,0,56.6c-0.4,23.4-19.7,42.5-43.1,43.1    C163.2,143,155.3,142.8,146.6,142.8z"></path>			<path class="st4" d="M353.4,142.9c-7.7,0-14.8,0-21.9,0c-26.4-0.2-45.6-19.4-45.8-45.8c-0.1-17.2-0.1-34.3,0-51.5    c0.1-26.1,19.4-45.4,45.5-45.5c41.1-0.1,82.2-0.1,123.3,0c25.7,0.1,45.1,19.5,45.2,45.2c0.1,17.5,0.1,35,0,52.5    c-0.2,25.4-19.6,44.7-45,45c-8.8,0.1-17.7,0.2-26.5-0.1c-4.2-0.1-7.4,1.2-10.7,3.7c-20.6,15.6-41.3,31-61.9,46.5    c-4,3-7.9,4.8-12.6,1.7c-3.9-2.6-4.7-6.4-2.6-12.8c3.7-11.3,7.5-22.5,11.2-33.8C352.3,146.5,352.8,144.9,353.4,142.9z"></path>		</g>	</g></g></svg>