<svg xmlns="http://www.w3.org/2000/svg" xmlns:xlink="http://www.w3.org/1999/xlink" x="0px" y="0px" viewBox="0 0 500 500" style="enable-background:new 0 0 500 500;" xml:space="preserve"><style type="text/css">			.st0{clip-path:url(#SVGID_00000131369941358311471220000015749055434585041333_);fill:url(#SVGID_00000021800147151241999460000000575391055195670411_);}	.st1{fill:#FFFFFF;}	.st2{fill:#4161AB;}	.st3{fill:#EBF6FF;}	.st4{fill:#0C2A52;}			.st5{opacity:0.4;clip-path:url(#SVGID_00000152257946045705159730000015616248684086161312_);fill:url(#SVGID_00000082366036858862880880000018337590662897715360_);}			.st6{clip-path:url(#SVGID_00000042012269023867988120000011478716490084982674_);fill:url(#SVGID_00000088821035282150842020000000328107057841472184_);}</style><g id="Layer_1"></g><g id="Layer_2">	<g>		<g>			<path class="st4" d="M0.1,232.2c3.9-49.8,20.1-92.1,48.1-130.7c15,11.5,29.1,22,42.7,33.1c2,1.6,2.3,6.4,1.9,9.5    c-4,26.4-8.2,52.8-13,79.1c-0.6,3.3-4.7,8.5-7.3,8.5C49,232.5,25.5,232.2,0.1,232.2z"></path>			<path class="st4" d="M500,232.3c-25.1,0-48.6,0.3-72.1-0.4c-2.7-0.1-7.1-5-7.6-8.2c-4.7-26.3-8.9-52.6-12.8-79    c-0.5-3.3,0.5-8.5,2.7-10.4c13.2-11,26.9-21.2,41.7-32.7C479.8,140,495.8,182.4,500,232.3z"></path>			<path class="st4" d="M0,268.2c25.5,0,49.8-0.2,74.2,0.4c2,0.1,5.2,5.4,5.7,8.7c4.5,25.8,8.7,51.8,12.5,77.7    c0.5,3.7-0.4,9.4-2.9,11.5c-12.8,10.7-26.3,20.6-41.2,32C20,360.3,4.2,317.6,0,268.2z"></path>			<path class="st4" d="M499.9,268.1c-3.9,49.4-19.9,91.8-48,130.4c-14.7-11.4-28.5-21.6-41.7-32.6c-2.3-1.9-3.2-7.1-2.7-10.4    c3.9-26,8.1-52,12.7-77.9c0.6-3.5,4.4-9,6.9-9.1C451,267.8,474.9,268.1,499.9,268.1z"></path>			<path class="st4" d="M230.9,149.5c-31.9-8.9-61.7-17.2-93-25.9c20.3-49.6,49.4-86.5,93-114.9C230.9,55.3,230.9,99.8,230.9,149.5z    "></path>			<path class="st4" d="M231.1,491.4c-43.9-28-72.4-64.9-92-111.4c28.8-15.6,59-23,92-26C231.1,399.7,231.1,444.3,231.1,491.4z"></path>			<path class="st4" d="M269.1,8.9c43.8,27.8,72.3,65.1,92,111.7c-28.9,15.1-59,22.9-92,25.5C269.1,100.7,269.1,56.1,269.1,8.9z"></path>			<path class="st4" d="M269.2,353.9c33.1,2.7,63,10.6,92,25.4c-19.3,46.6-48,83.9-92,112C269.2,444.5,269.2,400.1,269.2,353.9z"></path>			<path class="st4" d="M124.9,158c37.2,9.6,70.9,18.3,106.2,27.4c0,13.2,0,29.2,0,46c-38.5,0-76.4,0-117.2,0    C117.8,206,121.4,181.6,124.9,158z"></path>			<path class="st4" d="M268.7,231.5c0-16.4,0-32.1,0-46c34.9-8.9,68.9-17.5,106.2-27c3.5,22.6,7.3,47.1,11.2,72.9    C345.2,231.5,307.4,231.5,268.7,231.5z"></path>			<path class="st4" d="M231.4,268.9c0,16.2,0,31.9,0,45.8c-34.8,9-68.9,17.8-106.1,27.4c-3.5-22.7-7.4-47.3-11.4-73.2    C154.7,268.9,192.6,268.9,231.4,268.9z"></path>			<path class="st4" d="M268.8,314.5c0-13.7,0-29.3,0-45.7c38.6,0,76.4,0,117.2,0c-3.8,25.5-7.4,49.7-10.9,73    C338.7,332.5,304.8,323.8,268.8,314.5z"></path>			<path class="st4" d="M104.7,101c-10.2-8.5-20.5-17.1-32.5-27.2c25.9-26.3,54.4-44.9,88.2-57.5C141.8,44.6,123.9,71.8,104.7,101z"></path>			<path class="st4" d="M428.1,73.8c-12,10-22.6,18.9-32.6,27.3c-19-28.9-37-56.2-55.8-84.7C372.8,28.2,400.9,47.3,428.1,73.8z"></path>			<path class="st4" d="M71.8,426.4c12.6-10.3,23.3-19,33.1-27c18.9,28.8,36.7,55.8,55.1,83.8C126.7,472,99.1,452.4,71.8,426.4z"></path>			<path class="st4" d="M428.1,426.3c-27.2,26.4-55.3,45.5-88.5,57.4c18.5-28.1,36.4-55.3,55.7-84.6    C405.1,407.3,415.9,416.2,428.1,426.3z"></path>		</g>	</g></g></svg>