<svg xmlns="http://www.w3.org/2000/svg" xmlns:xlink="http://www.w3.org/1999/xlink" x="0px" y="0px" viewBox="0 0 500 500" style="enable-background:new 0 0 500 500;" xml:space="preserve"><style type="text/css">			.st0{clip-path:url(#SVGID_00000089540920490133642890000012748105946157666715_);fill:url(#SVGID_00000096737992270748732720000006797233821072357509_);}	.st1{fill:#FFFFFF;}	.st2{fill:#4161AB;}	.st3{fill:#EBF6FF;}	.st4{fill:#0C2A52;}			.st5{opacity:0.4;clip-path:url(#SVGID_00000057148031708825953330000002168633817323148163_);fill:url(#SVGID_00000075841708289236412330000000144545888827386018_);}			.st6{clip-path:url(#SVGID_00000008125547407107443270000005160604615359216270_);fill:url(#SVGID_00000073684616775792367400000007015515376235756731_);}</style><g id="Layer_1"></g><g id="Layer_2">	<g>		<path class="st4" d="M254.6,395.6c-11.6,0.6-22.3-2.7-31.4-9.7c-30-22.9-59.9-46.1-89.4-69.6c-8.5-6.8-15.9-15.2-23.6-23   c-0.9-0.9-1.3-3-0.9-4.2c13-39,23.1-78.7,31.7-118.8c0.3-1.4,2.2-3.4,3.4-3.4c12.5-0.3,25-0.2,38.6-0.2c-1.5,1.8-2.4,2.8-3.3,3.8   c-10.4,12-19.2,25.1-23.7,40.5c-1.4,4.8-2.2,9.9-2.2,14.9c0,11.6,7.5,20.4,18.5,24c23.6,7.7,42.5,0.3,58.4-17.5   c1.5-1.7,4-2.6,6.2-3.5c4.7-1.9,9.7-3.4,14.3-5.5c3.3-1.5,5.6-2.4,9,0.4c28.1,23.2,56.6,46,84.4,69.4c9.6,8.1,18.2,17.5,26.6,26.9   c3.2,3.5,5.4,8.2,6.9,12.8c2.3,6.8-1.3,12.8-8,15.1c-3.9,1.3-7,0.7-10.1-2.3c-18.8-19-37.8-37.9-56.7-56.8c-2.9-2.9-6-5-10.2-4.2   c-4.1,0.8-6.9,3.3-8.2,7.4c-1.3,4.2,0.2,7.6,3.1,10.5c10.3,10.3,20.6,20.6,30.9,30.9c8.1,8.1,16.1,16.3,24.3,24.2   c2.5,2.4,2.1,3.9,0,6.2c-5.1,5.6-11.5,7.2-18.6,6.1c-2.1-0.3-4.4-1.9-6-3.4c-15.9-15.7-31.6-31.5-47.4-47.3   c-6.7-6.7-12.3-7.5-17.2-2.4c-4.8,5-3.9,10.4,2.7,16.9c14.2,14.2,28.4,28.4,42.7,42.5c2.2,2.2,2.4,4,1.3,6.6   c-4.2,9.9-15.7,12.4-23.3,4.9c-12.9-12.8-25.7-25.6-38.5-38.5c-3-3-6.2-5.3-10.6-4.3c-3.9,0.8-6.6,3.2-7.9,7.1   c-1.4,4.2-0.1,7.6,2.8,10.6c9,9.1,18,18.1,27.1,27.1c1.6,1.6,3.5,2.8,5.2,4.2C255.3,394.5,254.9,395,254.6,395.6z"></path>		<path class="st4" d="M500,229.4c0,30.3,0,60.7,0,91c0,9.6-3.1,12.8-12.9,12.8c-19.3,0-38.7,0-58,0c-6.2,0-11.2-3.7-12.8-9.7   c-11-40.8-25.8-80.4-41.2-119.6c-5.9-15.1-12.9-29.7-19.6-44.4c-2.8-6.3-1-11.1,7.3-14.3c21.6-8.3,44.1-13.5,67-16.1   c19.2-2.1,38.5-3,57.8-4.1c8.7-0.5,12.3,3.4,12.3,12C500,167.8,500,198.6,500,229.4z"></path>		<path class="st4" d="M0,208.4c0-30.2,0-60.4,0-90.6c0-10.1,4.1-14.1,14.2-13.3c27,2,54,4.2,80.3,10.9c8.2,2.1,16.1,6,23.8,9.6   c6.1,2.8,7.6,8.1,6.4,14.6c-2.5,13.4-3.8,27.2-7.3,40.3c-10.2,39.1-21.1,78-31.8,117c-0.5,1.9-1.1,3.7-1.6,5.6   c-1.7,7.2-5,9.9-12.5,9.9c-19.8,0-39.6,0-59.3,0c-8.7,0-12.2-3.6-12.3-12.1C0,269.6,0,239,0,208.4z"></path>		<path class="st4" d="M392.5,308.2c-0.7-0.5-1.5-0.8-2-1.4c-19.6-23.3-43.3-41.9-66.6-61.2c-17.2-14.2-33.9-29-50.9-43.5   c-5-4.2-11-5.3-17.1-3.2c-4.9,1.6-9.5,4.3-14.4,6c-4.2,1.5-8.7,1.9-12.8,3.5c-3.2,1.2-6.2,3.2-8.7,5.5c-3.5,3.3-6.1,7.7-9.7,10.9   c-8.4,7.6-19.8,9-29.8,3.7c-1.7-0.9-3.6-3.7-3.4-5.4c0.5-4.5,1.5-9.1,3.2-13.3c6.7-15.9,18-28.3,30.9-39.3   c7.2-6.2,14.8-12,22.9-16.9c11.3-6.9,23.9-7.8,36.2-3.5c19,6.6,37.6,14,56.4,21.1c3.9,1.5,7.8,3.1,11.8,4c4.3,0.9,6.6,3.3,8.1,7.2   c10.1,26.1,20.4,52,30.3,78.2c5.2,13.8,9.9,27.7,14.8,41.6c0.6,1.8,1.2,3.6,1.7,5.4C393.1,307.7,392.8,307.9,392.5,308.2z"></path>	</g></g></svg>