<svg xmlns="http://www.w3.org/2000/svg" xmlns:xlink="http://www.w3.org/1999/xlink" x="0px" y="0px" viewBox="0 0 500 500" style="enable-background:new 0 0 500 500;" xml:space="preserve"><style type="text/css">			.st0{clip-path:url(#SVGID_00000052810035347012030110000013696652721081729455_);fill:url(#SVGID_00000088836165539107069020000016591636916573178758_);}	.st1{fill:#FFFFFF;}	.st2{fill:#4161AB;}	.st3{fill:#EBF6FF;}	.st4{fill:#0C2A52;}			.st5{opacity:0.4;clip-path:url(#SVGID_00000119105607395482634500000000340234645368890269_);fill:url(#SVGID_00000048461301543023602470000014906380640600567993_);}			.st6{clip-path:url(#SVGID_00000142892045180979232890000013874503876775234231_);fill:url(#SVGID_00000133515495631370540400000007869798790940391584_);}</style><g id="Layer_1"></g><g id="Layer_2">	<g>		<path class="st4" d="M244.2,467.6c-29.6,0-59.2-0.1-88.8,0c-15.2,0-26.9-5.8-33.7-19.7c-2-4-3.3-8.8-3.4-13.3   c-0.3-27.5-0.9-55,0-82.5c0.8-23.6,6.2-46.4,20.4-66c21.1-29.1,49.6-46,85.4-50.3c22.9-2.7,46.1-3.4,68.3,2.5   c44.1,11.6,72.2,41,85.1,84.4c2.8,9.6,4,19.9,4.2,29.9c0.6,25.6,0.2,51.2,0.2,76.8c0,7.7-1.3,15-5,21.9   c-3.5,6.5-8.5,11.5-15.7,12.8c-9.8,1.8-19.7,3.4-29.6,3.6c-29.1,0.5-58.3,0.2-87.5,0.2C244.2,467.7,244.2,467.7,244.2,467.6z"></path>		<path class="st4" d="M165.1,116.8c0.1-46.9,38-84.7,85-84.6c47,0,84.8,37.9,84.8,84.9c0,47.1-38.1,85.1-85.2,84.9   C202.8,201.8,165,163.7,165.1,116.8z"></path>		<path class="st4" d="M130.6,249.8c-5.9,7.5-11.8,14.4-17,21.8c-16,23-23.1,49.2-24.1,76.8c-1,27.5-0.5,55-0.4,82.5   c0,4.5-1.4,5.6-5.5,5.6c-18-0.1-36,0.1-54-0.2C11.7,436,0,423.7,0,405.8c0-34.5,0-69,0-103.5c0-36.4,26.7-64.9,62.9-66.9   c14.5-0.8,29.1-1.3,43.5,2.1C115.4,239.7,123.3,243.9,130.6,249.8z"></path>		<path class="st4" d="M369.1,250.2c7.7-6.5,15.8-11.1,25.2-12.8c18.9-3.5,37.9-4.3,56.7,0.2c28.4,6.8,48.8,33.1,48.9,62.3   c0.2,35.5,0.1,71.1,0,106.6c0,15.6-11.2,28.6-26.7,29.3c-19.4,0.9-38.9,0.4-58.4,0.5c-3.2,0-3.8-1.5-3.8-4.5   c0.1-25.3,0.5-50.6,0-75.8c-0.5-24.7-4.2-49.1-16.6-70.9c-6.3-11-14.6-20.9-22-31.2C371.6,252.7,370.5,251.7,369.1,250.2z"></path>		<path class="st4" d="M78.2,94.6c29.6,0,53.7,23.9,53.8,53.5c0.1,29.7-24.3,53.9-54,53.8c-29.5-0.1-53.6-24.3-53.6-53.8   C24.5,118.6,48.6,94.6,78.2,94.6z"></path>		<path class="st4" d="M422,94.6c29.7,0.1,53.6,24.1,53.6,53.7c0,29.7-24.5,53.9-54.2,53.6c-29.6-0.3-53.6-24.5-53.4-54   C368.3,118.4,392.4,94.5,422,94.6z"></path>	</g></g></svg>