<svg xmlns="http://www.w3.org/2000/svg" xmlns:xlink="http://www.w3.org/1999/xlink" x="0px" y="0px" viewBox="0 0 500 500" style="enable-background:new 0 0 500 500;" xml:space="preserve"><style type="text/css">			.st0{clip-path:url(#SVGID_00000145025222585173898720000012608579275015396737_);fill:url(#SVGID_00000029012030640677382180000010714629103635947945_);}	.st1{fill:#FFFFFF;}	.st2{fill:#4161AB;}	.st3{fill:#EBF6FF;}	.st4{fill:#0C2A52;}			.st5{opacity:0.4;clip-path:url(#SVGID_00000075885393838053754930000002389322786588451485_);fill:url(#SVGID_00000018213127478811256080000014273056969534565047_);}			.st6{clip-path:url(#SVGID_00000168076789099564970700000011877870652391971252_);fill:url(#SVGID_00000154398108243028123430000002495506571596614833_);}</style><g id="Layer_1"></g><g id="Layer_2">	<g>		<g>			<path class="st4" d="M0.1,312c0-2.3,0-4.4,0-6.4c0-91.5,0-182.9,0-274.4C0.1,10.9,9.9,0,28.2,0C176.1,0,324,0,471.9,0    c18,0,28,11,28,30.8c0,91.8,0,183.6,0,275.4c0,1.9,0,3.8,0,5.7C333.1,312,166.8,312,0.1,312z M170.9,181c0,2.4,0,4.2,0,5.9    c0,14.8-0.1,29.5,0,44.3c0.1,9.2,7.3,16.3,16.3,16.5c9.1,0.1,16.8-7,16.9-16.4c0.1-39.7,0.3-79.3-0.1-119    c-0.3-23.1-18.2-43.3-41.2-46.8c-7.9-1.2-16.1-1-24.2-1c-29.1,0.1-50.9,21.7-51.1,50.8c-0.2,38.1-0.1,76.1,0,114.2    c0,10.6,7,18.1,16.6,18.2c9.7,0,16.6-7.5,16.6-18.1c0.1-14.3,0-28.5,0-42.8c0-1.7,0-3.4,0-5.3c1.6-0.2,2.7-0.3,3.8-0.3    C139.8,181,155,181,170.9,181z M270.8,181c2.1,0,3.8,0,5.5,0c10.3,0,20.6,0.3,30.9-0.2c22.9-1.2,42.2-18.1,45.7-40.7    c1.4-9,1.3-18.3,1-27.5c-0.9-26.8-22.5-47.8-49.3-48.1c-16.6-0.2-33.3-0.1-50,0c-10,0.1-17,7.1-17.2,17.1c-0.1,5.1,0,10.1,0,15.2    c0,44.6,0,89.1,0,133.7c0,9.8,7.2,17.1,16.6,17.2c9.3,0,16.5-7.4,16.7-17.1c0.1-5.4,0-10.8,0-16.2    C270.8,203.3,270.8,192.4,270.8,181z M379.2,156.2c0,8.7,0,17.5,0,26.2c0,16.2-0.1,32.4,0.1,48.6c0.1,7.2,3.6,12.5,10.2,15.3    c6.2,2.6,12.2,1.6,17.3-2.9c4.4-3.8,5.8-8.8,5.8-14.5c-0.1-29.2,0-58.4,0-87.6c0-19.7,0-39.4,0-59c0-7.4-3.1-12.9-9.7-16.2    c-11.1-5.4-23.5,2.7-23.5,15.5C379.1,106.4,379.2,131.3,379.2,156.2z"></path>			<path class="st4" d="M0.1,333.2c166.9,0,333.1,0,499.9,0c0,5,0,9.9,0,14.8c0,4.8,0,9.6,0,14.4c-0.1,13.4-10,21-27.7,21    c-88.4,0-176.8,0-265.2,0c-59.7,0-119.3,0-179,0c-18.1,0-28-7.4-28-21C0,352.8,0.1,343.2,0.1,333.2z M207.9,370.7    c3.2,0,6.4,0.1,9.5,0c9-0.4,15.8-5.8,15.8-12.4c0-6.6-6.7-12.1-15.7-12.5c-6-0.2-12.1-0.2-18.1,0c-9.2,0.3-16.2,5.9-16.1,12.6    c0.1,6.6,7,11.9,16,12.3C202.2,370.8,205.1,370.7,207.9,370.7z M291.5,370.7c3,0,6,0.1,9,0c9-0.4,15.9-5.7,16-12.3    c0.1-6.7-6.8-12.4-16-12.7c-6-0.2-12.1-0.2-18.1,0c-8.9,0.3-15.8,5.9-15.8,12.5c0,6.6,6.8,12,15.8,12.5    C285.5,370.8,288.5,370.7,291.5,370.7z"></path>			<path class="st4" d="M183.2,466.6c0-16.8,0-33.1,0-49.6c11.2,0,21.9,0,33.2,0c0,16.2,0,32.6,0,49.3c22.5,0,44.3,0,66.7,0    c0-16.4,0-32.8,0-49.4c11.3,0,22,0,33.4,0c0,16.4,0,32.8,0,49.7c2.5,0,4.4,0,6.2,0c16.8,0,33.6,0,50.5,0c10.6,0,18.3,7,18.4,16.5    c0.1,9.7-7.6,16.9-18.4,16.9c-82.2,0-164.4,0-246.6,0c-10.7,0-18.3-6.9-18.4-16.5c-0.1-9.7,7.7-16.9,18.5-16.9    c16.8-0.1,33.6,0,50.5,0C179.1,466.6,180.9,466.6,183.2,466.6z"></path>			<path class="st4" d="M170.7,147.7c-16.6,0-32.8,0-49.9,0c0-2.7,0-5.3,0-7.9c0-8.1-0.1-16.2,0-24.2c0.1-10.6,7.1-17.5,17.7-17.6    c5.4,0,10.8-0.1,16.2,0c8.1,0.3,15.5,6.4,15.9,14.3C171.1,124,170.7,135.7,170.7,147.7z"></path>			<path class="st4" d="M271,147.6c0-16.5,0-32.7,0-49.3c12.2,0,24.2-0.5,36.2,0.2c7.6,0.5,13.2,7.7,13.5,15.5    c0.2,6,0.2,12.1,0,18.1c-0.3,7.7-5.6,14.9-13.1,15.3C295.5,148.2,283.3,147.6,271,147.6z"></path>		</g>	</g></g></svg>