<svg xmlns="http://www.w3.org/2000/svg" xmlns:xlink="http://www.w3.org/1999/xlink" x="0px" y="0px" viewBox="0 0 500 500" style="enable-background:new 0 0 500 500;" xml:space="preserve"><style type="text/css">			.st0{clip-path:url(#SVGID_00000150095760550577043840000014623707357359634330_);fill:url(#SVGID_00000160878348381493104870000012443055757038635921_);}	.st1{fill:#FFFFFF;}	.st2{fill:#4161AB;}	.st3{fill:#EBF6FF;}	.st4{fill:#0C2A52;}			.st5{opacity:0.4;clip-path:url(#SVGID_00000107586833520550639240000001638461321668824710_);fill:url(#SVGID_00000125600242190887184000000010912405205662036612_);}			.st6{clip-path:url(#SVGID_00000136393471129739078340000013591731065681745841_);fill:url(#SVGID_00000140003790535846967850000016070985900224429965_);}</style><g id="Layer_1"></g><g id="Layer_2">	<g>		<path class="st4" d="M102.7,0.1c22,0,40.4,6,57.1,17.3c14.4,9.7,26,22.1,33.9,37.6c4.9,9.7,8.2,19.9,9.9,30.7   c0.8,5.4,1.6,10.8,2.3,16.2c0.2,1.2,0.1,2.4-0.1,3.6c-1.6,9.1-3.3,18.2-5,27.3c-0.6,3.3,0.3,5.9,2.7,8.2   c13.2,13.1,26.4,26.2,39.5,39.4c18.1,18.1,36.2,36.2,54.3,54.3c18.4,18.5,36.8,36.9,55.3,55.4c2.5,2.5,5,5,7.5,7.6   c2,2.2,4.4,2.8,7.2,2.1c6.3-1.6,12.6-2.8,19-3.4c34.9-3.5,64.7,6.8,88.1,33.4c10.3,11.8,17.9,25.1,22.1,40.3   c2.6,9.3,3.4,18.8,3.3,28.4c-0.1,7.5-1,14.9-2.6,22.3c-0.5,2.3-1.2,4.5-2.4,6.6c-3.4,6.3-12.9,10.2-20.5,5c-1.5-1-2.9-2.3-4.2-3.6   c-9.9-9.9-19.8-19.8-29.7-29.7c-2.4-2.4-4.8-4.8-7.2-7.1c-5.4-5.3-11.9-8.5-19.5-9.1c-5.7-0.4-11.1,0.8-16,3.7   c-13.4,7.7-17.1,21.6-13.9,33.2c1,3.8,2.9,7.2,5.6,10c5.9,6.2,11.9,12.5,17.9,18.6c7.1,7.2,14.2,14.2,21.3,21.4   c1.2,1.2,2.3,2.5,3.3,3.8c2.2,3.1,3.3,6.6,2.8,10.5c-0.7,5.6-4,9.4-9.1,11.5c-2,0.8-4.1,1.3-6.3,1.7c-7.4,1.7-14.9,2.6-22.5,2.6   c-14,0.1-27.5-2.8-40.3-8.6c-14-6.3-26.3-14.9-36.4-26.5c-13-15.1-21-32.5-23.8-52.2c-1.1-7.8-1-15.6-0.3-23.4   c0.6-6.4,1.7-12.8,3.2-19c1.2-4.9,0-8.9-3.6-12.5c-15.3-15.2-30.6-30.4-45.8-45.7c-15.7-15.7-31.4-31.4-47.1-47.1   c-16.8-16.9-33.6-33.7-50.5-50.6c-3.5-3.5-6.9-7-10.4-10.4c-0.6-0.6-1.3-1.2-2-1.8c-2-1.5-4.3-2.2-6.8-1.7   c-2.9,0.6-5.8,1.2-8.7,1.8c-7.7,1.6-15.4,2.5-23.2,2.5c-12.4,0.1-24.5-2.1-36-6.9c-10.8-4.5-20.8-10.2-29.7-17.8   c-13.7-11.7-23.1-26.2-29-43.2c-2.8-8.1-4.8-16.4-5.6-24.9c-0.5-5.5-0.5-10.9,0-16.4c0.5-5.7,1.3-11.3,2.7-16.9   c0.4-1.7,1-3.4,1.7-5c3.4-7.5,13.8-11.1,21.3-5.5c1.3,1,2.5,2,3.7,3.1c11.2,11.1,22.3,22.3,33.5,33.4c1.3,1.3,2.5,2.5,3.8,3.7   c4.7,4.4,10.2,7.5,16.7,8.6c12.7,2.1,25.6-4.8,30.9-16.6c3.1-7.1,3.6-14.3,1.1-21.6c-1.1-3.2-2.9-6.1-5.2-8.6   c-5.2-5.5-10.4-11-15.7-16.4c-8.1-8.3-16.4-16.4-24.5-24.6c-1.1-1.1-2.1-2.4-3-3.8C63.5,18.6,66.4,9.7,72,6c2-1.3,4.3-2.2,6.6-2.8   C87.1,1.2,95.7,0.2,102.7,0.1z"></path>		<path class="st4" d="M156.6,260.7c27.6,27.7,55.1,55.2,82.6,82.7c-0.4,0.5-0.6,0.8-0.8,1.1c-0.7,0.8-1.4,1.5-2.2,2.3   c-34.9,34.9-69.9,69.9-104.8,104.8c-9.7,9.7-19.5,19.4-29.2,29.2c-6.9,6.9-14.7,12.3-23.8,15.6c-16.6,5.9-32.6,4.4-48-4.1   C13.6,483,3.7,468.6,0.9,449.7c-2.7-18.2,2-34.4,15-47.9c2.9-3.1,5.9-6.2,8.9-9.2c10.8-10.9,21.6-21.9,32.5-32.8   c31.9-31.9,63.9-63.8,95.9-95.7C154.1,263.1,155.2,262,156.6,260.7z M164.8,323.5c-2.1,0-4,0.5-5.8,1.4c-2,1-3.7,2.3-5.2,3.8   c-27.8,27.8-55.7,55.6-83.5,83.4c-1.6,1.6-3.3,3.3-4.8,5c-3.3,3.7-4.7,8.1-3.3,13c1.7,5.9,5.2,9.9,11.5,10.9   c3.7,0.6,7.2-0.3,10.4-2.3c1.6-1.1,3.1-2.4,4.4-3.7c19.4-19.4,38.8-38.8,58.2-58.2c8.7-8.7,17.4-17.4,26.1-26.1   c1.6-1.6,3.1-3.3,4.3-5.2c3.1-4.9,3-10,0.3-14.9C174.8,325.8,170.2,323.9,164.8,323.5z"></path>		<path class="st4" d="M321.5,217c-13.7-13.7-27.3-27.2-41-40.9c0.5-0.6,0.9-1.1,1.3-1.5c11.8-11.9,23.6-23.8,35.4-35.6   c19.7-19.8,39.4-39.6,59.1-59.4c0.8-0.8,1.6-1.6,2.5-2.6c-1-0.7-1.9-1.3-2.9-1.9c-3.2-2-5.5-4.8-7-8.1c-2.4-5.5-1.6-10.5,2.4-15   c1.6-1.8,3.5-3.1,5.5-4.3c14-8.4,28-16.8,42-25.3c10.2-6.1,20.4-12.3,30.6-18.4c2.1-1.3,4.4-2.3,6.7-3.2c3.7-1.3,7.3-0.8,10.7,1.2   c1.8,1.1,3.6,2.5,5.1,4c7.5,7.3,14.8,14.8,22.2,22.2c0.7,0.7,1.4,1.5,2.1,2.3c4.1,5,4.4,10.5,1.9,16.3c-0.5,1.1-1.1,2.2-1.7,3.2   C482,74.2,467.5,98.4,453,122.6c-1.4,2.4-3,4.6-5.1,6.4c-4.5,3.8-9.5,4.5-14.8,2c-2.2-1-4.2-2.4-5.9-4.2c-1.8-1.8-3.4-3.6-5.1-5.4   c-0.6-0.6-1.2-1.3-1.9-2.1c-0.7,0.6-1.3,1.1-1.8,1.6c-8.3,8.3-16.7,16.6-25,24.9c-16.4,16.3-32.7,32.6-49.1,48.9   c-6.9,6.9-13.8,13.7-20.7,20.6C322.9,215.8,322.3,216.3,321.5,217z"></path>	</g></g></svg>