<svg xmlns="http://www.w3.org/2000/svg" xmlns:xlink="http://www.w3.org/1999/xlink" x="0px" y="0px" viewBox="0 0 500 500" style="enable-background:new 0 0 500 500;" xml:space="preserve"><style type="text/css">			.st0{clip-path:url(#SVGID_00000131354206805681802790000015587049664725270411_);fill:url(#SVGID_00000163772407199455545900000016311061788471193498_);}	.st1{fill:#FFFFFF;}	.st2{fill:#4161AB;}	.st3{fill:#EBF6FF;}	.st4{fill:#0C2A52;}			.st5{opacity:0.4;clip-path:url(#SVGID_00000110468200615310608620000012654554863394465678_);fill:url(#SVGID_00000114772863941150669810000007098747314208121786_);}			.st6{clip-path:url(#SVGID_00000133529607092114470220000016939111422599397012_);fill:url(#SVGID_00000117652812539216692590000010774291555462729606_);}</style><g id="Layer_1"></g><g id="Layer_2">	<g>		<g>			<path class="st4" d="M250.3,154c59.9,0,119.7,0,179.6,0c1.6,0,3.3,0,4.9,0c9.6,0.2,14.4,5.2,13.2,14.9c-2,15.9-4.5,31.7-6.8,47.5    c-6,40.8-12,81.5-18,122.3c-0.6,4.1-1.2,8.2-1.9,12.2c-1.1,6-5.1,10.1-11,10.2c-10.9,0.3-21.8,0.1-32.6,0.2    c-4.1,0-3.2-2.9-3.3-5.2c0-24.4,0-48.8,0-73.2c0-7.3-1.4-14.1-5.7-20.1c-6.1-8.7-14.6-13-25.1-13.6c-17.2-0.9-34.2-3.1-50.3-9.7    c-7.7-3.2-15.2-7.2-22.2-11.8c-14.7-9.7-27.4-10.1-41.7,0c-18,12.8-38.6,18.1-60.2,20.4c-4.1,0.4-8.2,0.7-12.3,1    c-18.6,1-31.2,14.1-31.3,32.8c-0.1,24.4-0.2,48.8,0.1,73.2c0.1,5.2-1.5,6.4-6.4,6.2c-9.1-0.4-18.1,0-27.2-0.1    c-8.1-0.1-12.3-3.6-13.5-11.5c-5.3-35.5-10.5-71.1-15.8-106.6c-3.4-23.3-6.9-46.6-10.3-70c-0.3-2.3-0.7-4.6-0.7-6.9    c-0.1-6.8,4.2-11.6,11-12.2c2-0.2,4-0.1,5.9-0.1C129.3,154,189.8,154,250.3,154z"></path>			<path class="st4" d="M353.8,328.8c-0.6,17.8-0.1,35.7-2.1,53.3c-3.8,33.6-19,61.7-44.7,84c-15.1,13.2-31.9,23.8-50.2,32.2    c-4.7,2.2-8.9,2.3-13.7,0c-31.1-15-58.9-33.9-77.3-64.1c-13.5-22.1-19.4-46.3-19.4-72.1c0-26.2,0-52.4,0-78.6    c0-9.7,3.2-13,12.9-13.6c24.4-1.5,48.1-5.8,69.9-17.7c4.6-2.5,9-5.5,13.4-8.4c5.1-3.4,9.3-3.7,14.2-0.2    c24.1,17.6,51.7,23.9,80.7,26.1c1.3,0.1,2.6,0.1,3.9,0.2c8.2,0.7,11.5,4.1,11.6,12.3c0.1,15.5,0,31,0,46.5    C353.4,328.8,353.6,328.8,353.8,328.8z M249.9,418.2c3.1,0,6.3,0.1,9.4,0c6.6-0.2,9.9-4.1,8.9-10.7c-1.3-8.6-2.5-17.3-4-25.9    c-1.1-5.9-0.1-10.5,4.6-15.1c9.7-9.5,9.2-26.3-0.4-35.7c-10.2-10.1-26.3-10.1-36.5-0.1c-9.9,9.7-10.4,26.4-0.4,36    c4.6,4.4,5.3,8.9,4.3,14.6c-1.5,8.8-2.8,17.6-4,26.4c-0.9,6.5,2.3,10.1,8.7,10.4C243.7,418.3,246.8,418.2,249.9,418.2z"></path>			<path class="st4" d="M81.2,133.2c0-2.5,0-4.2,0-6c0-37.3,0-74.5,0-111.8c0-11.5,3.8-15.3,15.5-15.3c25.2,0,50.5,0.1,75.7-0.1    c7.4-0.1,12.2,2.7,15.2,9.4c2.3,5.1,5,10,7.6,15C202,37.6,212.7,44,227.5,44c32.3-0.1,64.6,0,97,0c26.5,0,53.1,0,79.6,0    c11.2,0,15,3.8,15,14.8c0,22.9,0,45.8,0,68.8c0,1.6,0,3.3,0,5.7c-7.7,0-15.1,0.1-22.4-0.2c-0.7,0-1.9-2.7-1.9-4.2    c-0.2-11.4-0.1-22.8-0.1-34.1c-0.1-14.7-8.3-23.1-22.9-23.1c-81.1,0-162.2,0-243.4,0c-14.6,0-22.9,8.4-22.9,23.1    c0,11.4-0.1,22.8,0,34.1c0.1,3.5-1.1,4.6-4.5,4.5C94.7,133.1,88.4,133.2,81.2,133.2z"></path>			<path class="st4" d="M126.2,92.7c82.7,0,164.9,0,247.5,0c0,12.9,0.1,25.4-0.1,37.9c0,0.9-1.6,2-2.7,2.5c-1,0.4-2.3,0.1-3.4,0.1    c-78.3,0-156.6,0-235,0.1c-4.8,0-6.6-0.9-6.4-6.2C126.5,115.8,126.2,104.4,126.2,92.7z"></path>		</g>	</g></g></svg>