<svg xmlns="http://www.w3.org/2000/svg" xmlns:xlink="http://www.w3.org/1999/xlink" x="0px" y="0px" viewBox="0 0 500 500" style="enable-background:new 0 0 500 500;" xml:space="preserve"><style type="text/css">			.st0{clip-path:url(#SVGID_00000088130329403109501610000009544537651574380971_);fill:url(#SVGID_00000005233568933022746770000009164133348223661718_);}	.st1{fill:#FFFFFF;}	.st2{fill:#4161AB;}	.st3{fill:#EBF6FF;}	.st4{fill:#0C2A52;}			.st5{opacity:0.4;clip-path:url(#SVGID_00000021083420919328100290000012606535493429155736_);fill:url(#SVGID_00000134952284370505755200000004511568466966955408_);}			.st6{clip-path:url(#SVGID_00000101079042548343061510000017946981151963744414_);fill:url(#SVGID_00000105427607947263154040000015220308968223759525_);}</style><g id="Layer_1"></g><g id="Layer_2">	<g>		<path class="st4" d="M174.4,500c-43.8,0-87.7,0-131.5,0c-18.4,0-29-10.4-29-28.7c-0.1-29.3-0.1-58.6-0.2-87.8   c0-17.9,10.4-28.3,28.2-28.3c8.1,0,16.1,0,24.2,0c9.4,0,17.2-3.5,23.5-10.5c7-7.7,14.1-15.4,21.1-23.2c10.7-12,24-18,40.2-17.9   c33.1,0.2,66.2,0,99.2,0.1c16.9,0.1,30.6,12,33.4,28.7c2.6,15.9-6.7,31.9-22.2,37.1c-4.5,1.5-9.6,2-14.4,2.1   c-11.9,0.3-23.7-0.1-35.6,0.2c-14.5,0.4-23.4,14.4-17.5,27.1c3.2,6.9,8.9,11,16.5,11c26.7,0.2,53.5,0.1,80.2,0   c6.7,0,12.6-2.9,17.7-7.2c28.7-24.2,57.3-48.4,86-72.6c2.8-2.3,5.5-4.7,8.4-6.9c17.1-13.1,41-10.4,55,6.2c13.5,16,12,40-3.6,54.5   c-15.1,14-30.4,27.7-45.6,41.6c-22.1,20.1-44.4,40.1-66.3,60.4c-10.4,9.6-22.6,14.2-36.6,14.2C261.8,500,218.1,500,174.4,500z"></path>		<path class="st4" d="M393.5,58.2c4.9-5,9.6-10,14.4-14.8c10.6-10.6,25.7-11.1,35.8-1.5c10.4,10,10.4,25.1-0.2,36.2   c-3.9,4.2-8,8.2-12.2,12.2c-2.2,2.1-2.7,3.8-1.2,6.7c2.9,6,5.4,12.2,7.6,18.4c1.1,3.1,2.7,4,5.7,3.9c5.9-0.2,11.9-0.2,17.8,0   c14.5,0.4,25.1,11,25.1,25c-0.1,14.1-10.6,24.5-25.2,24.7c-5.9,0.1-11.9,0.2-17.8,0c-3.1-0.1-4.5,1.1-5.5,4.1   c-2.2,6.3-4.8,12.4-7.6,18.4c-1.2,2.6-1.2,4.3,1,6.3c4.3,4,8.5,8.2,12.6,12.5c10.3,10.9,10.5,25.9,0.5,35.9   c-9.9,9.9-25.1,9.6-35.8-0.7c-4.3-4.1-8.2-8.5-12.7-12.4c-1.2-1.1-4-1.5-5.5-0.9c-6.6,2.4-13.1,5.1-19.4,8.1   c-1.5,0.7-3.2,2.9-3.3,4.6c-0.4,6.1,0,12.2-0.2,18.3c-0.4,14.6-11,25.2-24.9,25.1c-13.8,0-24.4-10.7-24.9-25.3   c-0.2-6.1,0.2-12.2-0.2-18.3c-0.1-1.6-1.8-3.8-3.3-4.5c-6.2-2.9-12.5-5.6-18.9-7.9c-1.7-0.6-4.7-0.2-6,0.9   c-4.6,4-8.7,8.6-13.1,12.8c-10.2,9.8-25.2,10-35,0.5c-9.9-9.6-10.2-25-0.4-35.5c4.2-4.5,8.5-8.8,13-12.9c2.3-2.1,2.5-3.8,1.1-6.7   c-2.8-5.6-5.4-11.4-7.2-17.4c-1.3-4-3.3-5.1-7.2-5c-5.7,0.3-11.5,0.2-17.2,0c-13.8-0.3-24.3-10.7-24.6-24.3   c-0.4-13.3,10-24.6,23.7-25.3c6.5-0.4,13-0.2,19.4-0.1c3.1,0.1,4.5-1,5.5-4c2.2-6.3,5.2-12.2,7.4-18.5c0.6-1.7,0.2-4.7-0.9-6   c-3.8-4.5-8.3-8.4-12.4-12.7c-10.2-10.6-10.4-26-0.4-35.9c9.9-9.8,25.3-9.5,35.9,0.9c4.2,4.1,8.2,8.5,12.7,12.4   c1.2,1.1,4,1.4,5.5,0.9c6.4-2.3,12.7-5,18.9-7.9c1.7-0.8,3.5-3.1,3.6-4.9c0.5-5.7,0.1-11.5,0.2-17.2c0.3-15.1,11.1-26.4,25.1-26.3   c13.9,0.1,24.4,11.1,24.7,26c0.1,5.7-0.3,11.5,0.2,17.2c0.1,1.8,1.8,4.2,3.5,5.1c3.6,1.9,7.6,2.8,11.4,4.3   C385.7,54.2,389.2,56,393.5,58.2z M342.4,185.1c22.6-0.1,40.9-18.6,40.7-41.2c-0.1-22.4-18.4-40.6-40.7-40.7   c-22.5-0.1-41.2,18.6-41.1,41C301.3,166.7,319.9,185.2,342.4,185.1z"></path>	</g></g></svg>