<svg xmlns="http://www.w3.org/2000/svg" xmlns:xlink="http://www.w3.org/1999/xlink" x="0px" y="0px" viewBox="0 0 500 500" style="enable-background:new 0 0 500 500;" xml:space="preserve"><style type="text/css">			.st0{clip-path:url(#SVGID_00000126283408739899995870000015239958975194967431_);fill:url(#SVGID_00000158012765476545337530000003081611332035699123_);}	.st1{fill:#FFFFFF;}	.st2{fill:#4161AB;}	.st3{fill:#EBF6FF;}	.st4{fill:#0C2A52;}			.st5{opacity:0.4;clip-path:url(#SVGID_00000002374626768041942680000018382908860266508717_);fill:url(#SVGID_00000090994480360802517620000003483886175906691489_);}			.st6{clip-path:url(#SVGID_00000062181057111028393620000011171483920597185667_);fill:url(#SVGID_00000109022874070997483340000010908157405360503227_);}</style><g id="Layer_1"></g><g id="Layer_2">	<g>		<g>			<path class="st4" d="M250,500c-65,0-129.9,0-194.9,0c-28.5,0-50-18.5-54.6-46.5C0,450.3,0,447,0,443.8C0,314.6,0,185.3,0,56.1    C0,23,23,0,56.2,0c129.2,0,258.5,0,387.7,0C477,0,500,23,500,56.2c0,129.2,0,258.5,0,387.7c0,33.1-23,56.1-56.2,56.1    C379.2,500,314.6,500,250,500z M267.8,186c2.5,2.3,3.7,3.5,4.9,4.7c26,26,51.9,51.9,77.9,77.9c5.4,5.4,11.9,7.1,19.2,4.5    c6.7-2.4,10.5-7.4,11.4-14.4c0.9-6.6-1.9-11.8-6.5-16.4c-36.9-36.9-73.8-73.9-110.7-110.8c-9-9-19-8.9-28.1,0.3    c-37.3,37.3-74.5,74.6-111.8,111.9c-8.2,8.2-8.7,18.8-1.4,26.3c7.4,7.6,18.3,7,26.7-1.3c26-26,51.9-51.9,77.9-77.9    c1.2-1.2,2.5-2.4,4.9-4.6c0,3.5,0,5.5,0,7.4c0,70.6,0,141.1,0,211.7c0,2.4-0.1,4.8,0.2,7.1c1.4,13,15.7,20.3,26.7,13.6    c6.6-4,8.8-10.3,8.8-17.8c-0.1-71.6,0-143.2,0-214.8C267.8,191.4,267.8,189.5,267.8,186z M250.3,71.5c-41.7,0-83.3-0.1-125,0    c-25.2,0.1-46.9,16.6-51.9,40.7c-2.2,10.8-2,22.3-1.5,33.4c0.4,8.9,9.3,15.4,18.3,14.9c9-0.4,16.4-7.6,16.9-16.7    c0.3-6.1,0-12.2,0.1-18.4c0.2-10.8,7.5-18.3,18.3-18.3c83-0.1,165.9-0.1,248.9,0c10.8,0,18.2,7.6,18.4,18.3    c0.1,5.8-0.1,11.6,0.1,17.3c0.2,10.1,8,17.8,17.9,17.8c9.8,0,17.5-7.7,17.8-17.9c0.1-4.8,0-9.5,0-14.3    c0-34.2-22.7-56.9-56.9-56.9C331.2,71.4,290.8,71.5,250.3,71.5z"></path>		</g>	</g></g></svg>