<svg xmlns="http://www.w3.org/2000/svg" xmlns:xlink="http://www.w3.org/1999/xlink" x="0px" y="0px" viewBox="0 0 500 500" style="enable-background:new 0 0 500 500;" xml:space="preserve"><style type="text/css">			.st0{clip-path:url(#SVGID_00000107549117526421690870000009519983745963464885_);fill:url(#SVGID_00000061450693721505207350000007366702859736244913_);}	.st1{fill:#FFFFFF;}	.st2{fill:#4161AB;}	.st3{fill:#EBF6FF;}	.st4{fill:#0C2A52;}			.st5{opacity:0.4;clip-path:url(#SVGID_00000121990397366490633400000000659062684139879854_);fill:url(#SVGID_00000036952482449866736750000001092353205733736631_);}			.st6{clip-path:url(#SVGID_00000042713668495931184040000000396498040894343870_);fill:url(#SVGID_00000153674595643979007260000002441784334186930848_);}</style><g id="Layer_1"></g><g id="Layer_2">	<g>		<path class="st4" d="M386.7,193.3c0,24.2,0.5,48.3-0.2,72.5c-0.5,16.4-4.4,32.4-10.3,47.8c-0.6,1.6-2.8,3.5-4.5,3.8   c-46.8,9.4-80.1,47.9-82,95.4c-0.1,2.7-0.8,4.3-3.3,5.6c-17.5,9.3-35.9,16.1-55.5,19.6c-3,0.5-6.3-0.2-9.3-0.9   c-76-16.5-135-77.5-148.5-154c-2.1-12-2.8-24.3-2.9-36.5c-0.3-42.1-0.1-84.2-0.2-126.4c0-3.8,0.9-5.8,4.7-7.4   c50-21.2,99.9-42.7,149.8-64.2c3-1.3,5.5-1.3,8.5,0c49.9,21.5,99.8,42.9,149.8,64.2c3.5,1.5,4.7,3.2,4.7,7   c-0.2,24.5-0.1,49-0.1,73.4C387.2,193.3,386.9,193.3,386.7,193.3z M334.2,228.3c2.7-2,5.4-3.5,7.4-5.7c5.2-5.5,6.4-12.1,3.5-19   c-3.2-7.7-9.6-11.2-17.8-11.2c-19.9,0-39.7,0-59.6,0c-1.7,0-3.3-0.1-5.6-0.3c1.1-1.9,2.2-3.2,2.7-4.6c2-5.5,4.8-10.9,5.4-16.5   c0.9-8.8,0.2-17.8,0.2-26.7c0-10.8-3.3-20.4-10-28.7c-8.9-11-20.5-16.5-35-17.1c-0.1,2.1-0.3,3.6-0.3,5.2c0,9.7-0.3,19.4,0.1,29.1   c0.6,16.4-5.5,30-17.6,40.5c-9.3,8.1-19.5,15.3-29.4,22.7c-2.4,1.8-3.5,3.6-3.5,6.7c0.1,39,0,77.9,0.2,116.9c0,2,1.2,4.6,2.7,6   c9.1,8.4,19.6,14.6,31.9,15.8c10.4,1,21.1,1.5,31.3,0c23.2-3.5,46.3-5.6,69.8-4.7c1.3,0,2.5,0,3.8-0.2c7.1-0.7,12.3-4.5,14.9-11   c2.7-6.7,1.7-13.2-3.1-18.7c-1.9-2.2-4.6-3.7-7.5-5.9c10.6,0.1,19.2-2.8,22-13.8c2.6-9.9-2.1-16.8-9.9-21.2   c5.3-1.7,11.2-2.6,16.1-5.3c5.5-3,7.5-8.9,7.1-15.2C353.5,235.6,346.3,229.4,334.2,228.3z M127.1,323.5c8.5,0,16.5,0,24.6,0   c6.3,0,6.3,0,6.3-6.2c0-37.5,0-75,0-112.5c0-1.1,0.3-2.4-0.1-3.3c-0.5-1.1-1.7-2.5-2.6-2.6c-9.3-0.2-18.7-0.1-28.3-0.1   C127.1,240.4,127.1,281.5,127.1,323.5z"></path>		<path class="st4" d="M290.8,434.9c2.9,8.7,5.5,16.8,8.4,25.6c-7.8,3.3-15.5,6.9-23.5,9.8c-8.7,3.1-17.6,5.4-26.3,8.3   c-13,4.4-25.8,4.1-39.2,0.6C153.9,464.4,107,435.7,71.9,389c-25.3-33.7-40-71.7-44.1-113.6c-0.9-9.5-1.4-19-1.4-28.6   c-0.1-51.8,0-103.7-0.1-155.5c0-3.8,0.9-5.9,4.7-7.5c64.5-27.4,128.8-55,193.2-82.7c3.3-1.4,6-1.6,9.4-0.1   c64.2,27.6,128.5,55.2,192.8,82.5c4.1,1.7,5.2,3.8,5.2,8.1c-0.1,51.7-0.1,103.3-0.1,155c0,23.2-2.5,46-9,68.3   c-0.4,1.2-0.7,2.4-1.1,3.6c-0.1,0.4-0.5,0.8-0.7,1.2c-8.8-1.5-17.5-2.9-26.5-4.5c0.2-1.1,0.2-2.3,0.6-3.5   c6.7-21.3,9.7-43,9.7-65.3c0-44.4-0.1-88.7,0.1-133.1c0-6.9-2.4-10.6-8.8-13.4c-53.4-22.7-106.6-45.6-159.9-68.5   c-3.9-1.7-7.4-2.7-11.8-0.8c-54.3,23.4-108.6,46.7-162.9,69.9c-5,2.1-7.5,5.2-7.4,10.8c0.1,47.4-1.1,94.8,0.4,142.1   c2.6,79.1,39.6,138.4,107.8,178.2c19.6,11.5,41,18.6,63.4,22.7c2.6,0.5,5.4,0.4,8-0.1c18.2-3.3,35.7-9.1,52.4-17.1   C287.1,436.6,288.9,435.8,290.8,434.9z"></path>		<path class="st4" d="M473.8,416.4c-0.2,46.3-37.6,83.7-83.8,83.6c-46.5-0.1-83.8-37.6-83.7-84.2c0.1-46.1,37.8-83.5,84.1-83.4   C436.6,332.6,474,370.3,473.8,416.4z M378.6,426.6c-6.9-6.9-12.4-12.4-17.9-17.8c-5.3-5.3-12.2-5.6-17-1c-5,4.8-4.8,11.7,0.7,17.3   c8,8.2,16.1,16.3,24.3,24.3c5.6,5.5,12.2,5.6,17.7,0.1c16.6-16.6,33.2-33.3,49.6-50.2c1.9-1.9,3.2-4.8,3.8-7.4   c1-4.7-1.8-9.3-6-11.4c-4.8-2.4-9.7-1.6-13.9,2.7c-12.6,12.6-25.1,25.2-37.6,38C380.8,422.4,380,424.5,378.6,426.6z"></path>	</g></g></svg>